<mxfile host="app.diagrams.net" modified="2024-08-07T15:18:42.105Z" agent="Mozilla/5.0 (Windows NT 10.0; Win64; x64) AppleWebKit/537.36 (KHTML, like Gecko) Chrome/127.0.0.0 Safari/537.36" version="24.7.1" etag="oZJJbx2G9PoE0744keZh" type="github">
  <diagram name="Page-1" id="MMWF_ujBPG9AJ4IhkABe">
    <mxGraphModel>
      <root>
        <mxCell id="0" />
        <mxCell id="1" parent="0" />
      </root>
    </mxGraphModel>
  </diagram>
</mxfile>
